Exact Audio Copy V0.99 prebeta 1 from 25. May 2007

EAC 抓取日志文件从25. 二月 2011, 23:08

何纪光 / 20世纪中华歌坛名人百集珍藏版

使用驱动器  ：PIONEER DVD-RW  DVR-115   Adapter: 0  ID: 0

读取模式     : 保护
使用精确流   : 是
废除音频缓冲 : 是
使用 C2 指针 : 否

组合读/写偏移校正              : 48
读取 Lead-In 和 Lead-Out       : 否
用静音填充抓取中丢失偏移的采样 : 是
去除首尾静音块                 : 否
已用接口                       : Win NT 及 2000 本地 Win32 接口

所用输出格式 : 内部 WAV 函数
样本格式     : 44.100 Hz;16 Bit;立体声
使用压缩偏移 : 48


被抓轨 CD 的 TOC

     音轨 |   开始   |   长度   | 起始扇区 | 结尾扇区 
    --------------------------------------------------
       1  |  0:00.00 |  4:02.17 |       0  |   18166  
       2  |  4:02.17 |  1:53.58 |   18167  |   26699  
       3  |  5:56.00 |  5:01.72 |   26700  |   49346  
       4  | 10:57.72 |  4:29.15 |   49347  |   69536  
       5  | 15:27.12 |  2:28.00 |   69537  |   80636  
       6  | 17:55.12 |  1:24.60 |   80637  |   86996  
       7  | 19:19.72 |  2:47.20 |   86997  |   99541  
       8  | 22:07.17 |  1:20.58 |   99542  |  105599  
       9  | 23:28.00 |  4:45.02 |  105600  |  126976  
      10  | 28:13.02 |  2:27.30 |  126977  |  138031  
      11  | 30:40.32 |  2:46.68 |  138032  |  150549  
      12  | 33:27.25 |  3:20.25 |  150550  |  165574  
      13  | 36:47.50 |  2:19.12 |  165575  |  176011  
      14  | 39:06.62 |  3:18.18 |  176012  |  190879  
      15  | 42:25.05 |  3:35.02 |  190880  |  207006  
      16  | 46:00.07 |  3:04.35 |  207007  |  220841  
      17  | 49:04.42 |  3:06.13 |  220842  |  234804  
      18  | 52:10.55 |  3:48.35 |  234805  |  251939  


范围状态及错误

已选择范围

     文件名 E:\20世纪中华歌坛名人百集珍藏版-何纪光[lwg188原创]\何纪光 - 20世纪中华歌坛名人百集珍藏版.wav

     峰值电平 99.9 %
     范围质量 100.0 %
     复制 CRC 37767C69
     复制成功

没有错误发生

状态报告结尾
